<svg width="17" height="15" viewBox="0 0 17 15" fill="none" xmlns="http://www.w3.org/2000/svg">
<path d="M10.1 9.88V8.38H16.1V12.88C16.1 13.6925 15.3813 14.38 14.6 14.38H1.6C0.7875 14.38 0.1 13.6925 0.1 12.88V8.38H6.1V9.88C6.1 10.1613 6.31875 10.38 6.6 10.38H9.6C9.85 10.38 10.1 10.1613 10.1 9.88ZM14.6 3.38C15.3813 3.38 16.1 4.09875 16.1 4.88V7.38H0.1V4.88C0.1 4.09875 0.7875 3.38 1.6 3.38H4.1V1.88C4.1 1.09875 4.7875 0.380005 5.6 0.380005H10.6C11.3813 0.380005 12.1 1.09875 12.1 1.88V3.38H14.6ZM10.1 3.38V2.38H6.1V3.38H10.1Z" fill="#212529"/>
</svg>
