<svg xmlns="http://www.w3.org/2000/svg" xmlns:cc="http://creativecommons.org/ns#" xmlns:dc="http://purl.org/dc/elements/1.1/" xmlns:rdf="http://www.w3.org/1999/02/22-rdf-syntax-ns#" version="1.1" viewBox="0 0 100 125" x="0px" y="0px"><path d="m17.396 3.0801c-8.4177 0-15.326 6.3227-15.326 14.252v66.184c0 7.9292 6.9085 14.252 15.326 14.252h64.035c8.4177 0 15.326-6.3227 15.326-14.252v-66.184c0-7.9292-6.9084-14.252-15.326-14.252h-64.035zm0 2.5h64.035c7.1784 0 12.826 5.2753 12.826 11.752v66.184c0 6.4766-5.6478 11.752-12.826 11.752h-64.035c-7.1784 0-12.826-5.2753-12.826-11.752v-66.184c0-6.4766 5.6478-11.752 12.826-11.752zm8.4316 13.779c-4.7136 9.69e-4 -8.5592 3.8508-8.5586 8.5645 6.47e-4 4.7136 3.8489 8.5609 8.5625 8.5605 4.5324-3.11e-4 8.1767-3.5867 8.457-8.0508a1.2501 1.2501 0 0 0 0.10352-0.51172 1.2501 1.2501 0 0 0 0-0.001953 1.2501 1.2501 0 0 0-0.10352-0.51367c-0.2825-4.4631-3.9292-8.0478-8.4609-8.0469zm16.129 0.021484c-2.018 0-3.7246 1.6169-3.7246 3.6348v9.8125c0 2.0178 1.7066 3.6367 3.7246 3.6367h35.877c2.018 0 3.7246-1.6189 3.7246-3.6367v-9.8125c0-2.0178-1.7066-3.6348-3.7246-3.6348h-35.877zm-16.127 2.4785c3.3626-6.92e-4 6.0616 2.698 6.0625 6.0605a1.2501 1.2501 0 0 0 0 0.001953c0 3.3626-2.698 6.0623-6.0605 6.0625s-6.062-2.698-6.0625-6.0605 2.698-6.0638 6.0605-6.0645zm16.127 0.021484h35.877c0.72416 0 1.2246 0.50838 1.2246 1.1348v9.8125c0 0.62639-0.50045 1.1367-1.2246 1.1367h-35.877c-0.72416 0-1.2246-0.51033-1.2246-1.1367v-9.8125c0-0.62639 0.50045-1.1348 1.2246-1.1348zm-16.129 19.98c-4.7136 9.7e-4 -8.5592 3.8489-8.5586 8.5625 6.47e-4 4.7136 3.8489 8.5628 8.5625 8.5625 4.533-3.11e-4 8.1777-3.5877 8.457-8.0527a1.2501 1.2501 0 0 0 0.10352-0.50977 1.2501 1.2501 0 0 0 0-0.001953 1.2501 1.2501 0 0 0-0.10352-0.51367c-0.2825-4.4631-3.9292-8.0478-8.4609-8.0469zm16.129 0.019531c-2.018 0-3.7246 1.6189-3.7246 3.6367v9.8125c0 2.0178 1.7066 3.6348 3.7246 3.6348h35.877c2.018 0 3.7246-1.6169 3.7246-3.6348v-9.8125c0-2.0178-1.7066-3.6367-3.7246-3.6367h-35.877zm-16.127 2.4805c3.3626-6.91e-4 6.0616 2.698 6.0625 6.0605a1.2501 1.2501 0 0 0 0 0.001953c0 3.3626-2.698 6.0623-6.0605 6.0625-3.3626 2.31e-4 -6.062-2.6999-6.0625-6.0625s2.698-6.0618 6.0605-6.0625zm16.127 0.019531h35.877c0.72416 0 1.2246 0.51033 1.2246 1.1367v9.8125c0 0.62639-0.50045 1.1348-1.2246 1.1348h-35.877c-0.72416 0-1.2246-0.50838-1.2246-1.1348v-9.8125c0-0.62639 0.50045-1.1367 1.2246-1.1367zm-16.129 19.982c-4.7136 9.7e-4 -8.5592 3.8489-8.5586 8.5625 6.47e-4 4.7136 3.8489 8.5609 8.5625 8.5605 4.533-3.11e-4 8.1777-3.5858 8.457-8.0508a1.2501 1.2501 0 0 0 0.10352-0.50977 1.2501 1.2501 0 0 0 0-0.003906 1.2501 1.2501 0 0 0-0.10352-0.50977c-0.28056-4.4649-3.9279-8.0498-8.4609-8.0488zm16.129 0.019531c-2.018 0-3.7246 1.6189-3.7246 3.6367v9.8105c0 2.0178 1.7066 3.6367 3.7246 3.6367h35.877c2.018 0 3.7246-1.6189 3.7246-3.6367v-9.8105c0-2.0178-1.7066-3.6367-3.7246-3.6367h-35.877zm-16.127 2.4805c3.3626-6.91e-4 6.0616 2.698 6.0625 6.0605a1.2501 1.2501 0 0 0 0 0.001953c0 3.3626-2.698 6.0603-6.0605 6.0605-3.3626 2.31e-4 -6.062-2.698-6.0625-6.0605s2.698-6.0618 6.0605-6.0625zm16.127 0.019531h35.877c0.72416 0 1.2246 0.51033 1.2246 1.1367v9.8105c0 0.62639-0.50045 1.1367-1.2246 1.1367h-35.877c-0.72416 0-1.2246-0.51033-1.2246-1.1367v-9.8105c0-0.62639 0.50045-1.1367 1.2246-1.1367z" color="#000000" color-rendering="auto" dominant-baseline="auto" image-rendering="auto" shape-rendering="auto" solid-color="#000000" style="font-feature-settings:normal;font-variant-alternates:normal;font-variant-caps:normal;font-variant-ligatures:normal;font-variant-numeric:normal;font-variant-position:normal;isolation:auto;mix-blend-mode:normal;shape-padding:0;text-decoration-color:#000000;text-decoration-line:none;text-decoration-style:solid;text-indent:0;text-orientation:mixed;text-transform:none;white-space:normal;"/><text x="0" y="115" fill="#000000" font-size="5px" font-weight="bold" font-family="'Helvetica Neue', Helvetica, Arial-Unicode, Arial, Sans-serif">Created by Tomi Triyana</text><text x="0" y="120" fill="#000000" font-size="5px" font-weight="bold" font-family="'Helvetica Neue', Helvetica, Arial-Unicode, Arial, Sans-serif">from the Noun Project</text></svg>