<svg width="17" height="17" viewBox="0 0 17 17" fill="none" xmlns="http://www.w3.org/2000/svg">
<path d="M6.1 6.88V10.38C6.1 10.9425 5.63125 11.38 5.1 11.38H4.6C3.475 11.38 2.6 10.505 2.6 9.38V7.88C2.6 6.78625 3.475 5.88 4.6 5.88H5.1C5.63125 5.88 6.1 6.34875 6.1 6.88ZM11.6 11.38H11.1C10.5375 11.38 10.1 10.9425 10.1 10.38V6.88C10.1 6.34875 10.5375 5.88 11.1 5.88H11.6C12.6938 5.88 13.6 6.78625 13.6 7.88V9.38C13.6 10.505 12.6938 11.38 11.6 11.38ZM8.1 0.380005C12.5375 0.380005 15.9438 4.09875 16.1 8.38V13.5675C16.1 15.13 14.8188 16.38 13.2563 16.38H7.6C6.75625 16.38 6.1 15.7238 6.1 14.88C6.1 14.0675 6.75625 13.38 7.6 13.38H8.6C9.4125 13.38 10.1 14.0675 10.1 14.88H13.2563C14.0063 14.88 14.6 14.3175 14.6 13.5675C14.6 13.5675 14.5688 8.47375 14.5688 8.38H14.6C14.6 4.8175 11.6625 1.88 8.1 1.88C4.50625 1.88 1.6 4.8175 1.6 8.38V8.88C1.6 9.16125 1.35 9.38 1.1 9.38H0.6C0.31875 9.38 0.1 9.16125 0.1 8.88V8.38C0.225 4.09875 3.63125 0.380005 8.1 0.380005Z" fill="#212529"/>
</svg>
