<svg width="19" height="15" viewBox="0 0 19 15" fill="none" xmlns="http://www.w3.org/2000/svg">
<path d="M9.75 3.84625C9.8125 3.78375 9.90625 3.7525 10 3.7525C10.0625 3.7525 10.1562 3.78375 10.2188 3.84625L16 8.565V13.69C16 13.9713 15.75 14.19 15.5 14.19H11.9688C11.7188 14.19 11.4688 13.9713 11.4688 13.69V10.69C11.4688 10.44 11.25 10.19 10.9688 10.19H8.96875C8.71875 10.19 8.46875 10.44 8.46875 10.69V13.69C8.46875 13.9713 8.25 14.19 8 14.19H4.5C4.21875 14.19 4 13.9713 4 13.69V8.59625L9.75 3.84625ZM18.8438 7.065C18.9375 7.1275 19 7.2525 19 7.34625C19 7.44 18.9688 7.53375 18.9062 7.59625L18.0938 8.565C18.0312 8.65875 17.9375 8.69 17.8125 8.69C17.7188 8.69 17.625 8.65875 17.5625 8.59625L10.2188 2.565C10.1562 2.5025 10.0625 2.47125 10 2.47125C9.90625 2.47125 9.8125 2.5025 9.75 2.565L2.40625 8.59625C2.34375 8.65875 2.25 8.69 2.15625 8.69C2.03125 8.69 1.9375 8.65875 1.875 8.565L1.0625 7.59625C1.03125 7.53375 0.96875 7.44 0.96875 7.34625C0.96875 7.2525 1.03125 7.1275 1.125 7.065L9.03125 0.533752C9.28125 0.346252 9.625 0.221252 10 0.221252C10.3438 0.221252 10.6875 0.346252 10.9375 0.533752L13.75 2.84625V0.596252C13.75 0.377502 13.9062 0.221252 14.125 0.221252H15.875C16.0625 0.221252 16.25 0.377502 16.25 0.596252V4.90875L18.8438 7.065Z" fill="#212529"/>
</svg>
