<svg width="30" height="29" viewBox="0 0 30 29" fill="none" xmlns="http://www.w3.org/2000/svg">
<g clip-path="url(#clip0_205_4929)">
<path d="M6.3584 16.5453H7.3584H6.3584ZM23.2708 16.8051L22.275 16.7132C22.2732 16.7328 22.272 16.7525 22.2713 16.7722L23.2708 16.8051ZM22.6312 19.6705L21.7122 19.2763V19.2763L22.6312 19.6705ZM20.7977 22.32L21.4923 23.0394V23.0394L20.7977 22.32ZM18.0536 24.0903L17.6823 23.1618H17.6823L18.0536 24.0903ZM8.83579 22.32L9.53038 21.6006H9.53038L8.83579 22.32ZM7.00225 19.6705L6.08325 20.0648L6.08325 20.0648L7.00225 19.6705ZM18.9603 7.27824L18.3367 6.4965L18.9603 7.27824ZM19.1302 7.27717L19.7536 6.49524L19.1302 7.27717ZM16.1805 10.2419L15.2354 10.5688L16.1805 10.2419ZM16.4628 10.2688L15.5988 9.76524L16.4628 10.2688ZM12.1933 3.79276L12.8423 4.5535L12.1933 3.79276ZM12.3811 3.80315L11.6642 4.50029L12.3811 3.80315ZM11.5442 3.03202C10.7171 3.73771 5.3584 8.60001 5.3584 16.5453H7.3584C7.3584 9.50939 12.1343 5.15763 12.8423 4.5535L11.5442 3.03202ZM17.1256 9.91505C15.7758 6.01248 13.6129 3.63553 13.0981 3.10601L11.6642 4.50029C12.0593 4.90662 14.0147 7.0392 15.2354 10.5688L17.1256 9.91505ZM17.3268 10.7723C18.2584 9.17386 19.3251 8.26642 19.5838 8.05999L18.3367 6.4965C17.9539 6.80185 16.6929 7.8881 15.5988 9.76524L17.3268 10.7723ZM18.5068 8.0591C19.0078 8.45846 22.2751 11.2687 22.2751 16.4767H24.2751C24.2751 10.3691 20.4436 7.04534 19.7536 6.49524L18.5068 8.0591ZM22.2751 16.4767V16.5453H24.2751V16.4767H22.2751ZM22.2751 16.5453V16.712H24.2751V16.5453H22.2751ZM22.2751 16.712C22.2751 16.7126 22.275 16.713 22.275 16.7132L24.2665 16.8971C24.2722 16.8359 24.2751 16.7742 24.2751 16.712H22.2751ZM22.2713 16.7722C22.243 17.631 22.0541 18.4794 21.7122 19.2763L23.5502 20.0648C23.9898 19.0402 24.2337 17.9469 24.2702 16.8381L22.2713 16.7722ZM21.7122 19.2763C21.3403 20.1433 20.7941 20.9334 20.1031 21.6006L21.4923 23.0394C22.3721 22.1899 23.072 21.1794 23.5502 20.0648L21.7122 19.2763ZM20.1031 21.6006C19.412 22.2678 18.5897 22.7989 17.6823 23.1618L18.4249 25.0188C19.5699 24.5609 20.6125 23.8889 21.4923 23.0394L20.1031 21.6006ZM17.6823 23.1618C16.7748 23.5248 15.8009 23.712 14.8167 23.712V25.712C16.054 25.712 17.28 25.4767 18.4249 25.0188L17.6823 23.1618ZM14.8167 23.712C13.8325 23.712 12.8587 23.5248 11.9512 23.1618L11.2085 25.0188C12.3535 25.4767 13.5794 25.712 14.8167 25.712V23.712ZM11.9512 23.1618C11.0437 22.7989 10.2214 22.2678 9.53038 21.6006L8.14119 23.0394C9.02098 23.8889 10.0636 24.5609 11.2085 25.0188L11.9512 23.1618ZM9.53038 21.6006C8.83939 20.9334 8.29321 20.1433 7.92125 19.2763L6.08325 20.0648C6.56143 21.1794 7.26133 22.1899 8.14119 23.0394L9.53038 21.6006ZM7.92125 19.2763C7.54933 18.4094 7.3584 17.4815 7.3584 16.5453H5.3584C5.3584 17.7541 5.60503 18.9501 6.08325 20.0648L7.92125 19.2763ZM19.5838 8.05999C19.282 8.3008 18.8323 8.31858 18.5068 8.0591L19.7536 6.49524C19.326 6.1544 18.7406 6.17431 18.3367 6.4965L19.5838 8.05999ZM15.2354 10.5688C15.5611 11.5105 16.8349 11.6163 17.3268 10.7723L15.5988 9.76524C15.9582 9.14869 16.8859 9.22208 17.1256 9.91505L15.2354 10.5688ZM12.8423 4.5535C12.4815 4.86135 11.9635 4.80811 11.6642 4.50029L13.0981 3.10601C12.6941 2.69055 12.0193 2.62672 11.5442 3.03202L12.8423 4.5535Z" fill="#222222"/>
<path d="M14.2852 13.429L13.6797 12.6332V12.6332L14.2852 13.429ZM10.026 19.4195L9.03492 19.2859L9.03491 19.2859L10.026 19.4195ZM15.3484 13.429L15.954 12.6332L15.3484 13.429ZM19.6075 19.4195L18.6165 19.5531L18.6165 19.5531L19.6075 19.4195ZM19.6108 19.4473L18.6157 19.5464C18.6168 19.5571 18.618 19.5679 18.6194 19.5786L19.6108 19.4473ZM10.0227 19.4473L11.014 19.5786C11.0155 19.5679 11.0167 19.5571 11.0178 19.5464L10.0227 19.4473ZM13.6797 12.6332C13.0628 13.1025 12.028 13.9603 11.0904 15.0795C10.1631 16.1866 9.25728 17.6362 9.03492 19.2859L11.017 19.5531C11.167 18.4402 11.8065 17.3392 12.6236 16.3639C13.4304 15.4007 14.3389 14.6446 14.8907 14.2248L13.6797 12.6332ZM15.954 12.6332C15.2783 12.119 14.3554 12.119 13.6797 12.6332L14.8907 14.2248C14.8753 14.2365 14.8489 14.2476 14.8168 14.2476C14.7847 14.2476 14.7583 14.2365 14.7429 14.2248L15.954 12.6332ZM20.5986 19.2859C20.3762 17.6362 19.4705 16.1866 18.5431 15.0796C17.6056 13.9604 16.5708 13.1025 15.954 12.6332L14.7429 14.2248C15.2947 14.6446 16.2032 15.4007 17.01 16.3639C17.827 17.3392 18.4665 18.4402 18.6165 19.5531L20.5986 19.2859ZM20.6058 19.3482C20.6038 19.3275 20.6013 19.3067 20.5985 19.2859L18.6165 19.5531C18.6162 19.5509 18.6159 19.5486 18.6157 19.5464L20.6058 19.3482ZM18.6194 19.5786C18.6396 19.731 18.6501 19.8867 18.6501 20.0452H20.6501C20.6501 19.7986 20.6338 19.5552 20.6021 19.316L18.6194 19.5786ZM18.6501 20.0452C18.6501 22.0374 16.9672 23.7119 14.8167 23.7119V25.7119C18.005 25.7119 20.6501 23.2076 20.6501 20.0452H18.6501ZM14.8167 23.7119C12.6663 23.7119 10.9834 22.0374 10.9834 20.0452H8.9834C8.9834 23.2076 11.6284 25.7119 14.8167 25.7119V23.7119ZM10.9834 20.0452C10.9834 19.8867 10.9939 19.731 11.014 19.5786L9.03136 19.3159C8.99968 19.5551 8.9834 19.7986 8.9834 20.0452H10.9834ZM9.03491 19.2859C9.03212 19.3067 9.02969 19.3274 9.02763 19.3481L11.0178 19.5464C11.0175 19.5487 11.0173 19.5509 11.017 19.5531L9.03491 19.2859Z" fill="#222222"/>
</g>
<defs>
<clipPath id="clip0_205_4929">
<rect width="29" height="28" fill="white" transform="translate(0.31665 0.211914)"/>
</clipPath>
</defs>
</svg>
