<svg xmlns="http://www.w3.org/2000/svg" viewBox="0 0 48 60" x="0px" y="0px"><g><path d="M44.45,30h-.93a10.82,10.82,0,0,0-.47-1.13l.65-.65a1.29,1.29,0,0,0,.39-.93,1.28,1.28,0,0,0-.38-.91L40.62,23.3a1.23,1.23,0,0,0-.87-.36V17.57A1.61,1.61,0,0,0,38.14,16H36.35a15.09,15.09,0,0,0-.94-2.25l1.27-1.27a1.6,1.6,0,0,0,.48-1.14,1.56,1.56,0,0,0-.48-1.13L31.83,5.32a1.64,1.64,0,0,0-2.27,0L28.29,6.59A15.09,15.09,0,0,0,26,5.65V3.86a1.62,1.62,0,0,0-1.61-1.61H17.57A1.62,1.62,0,0,0,16,3.86V5.65a15.09,15.09,0,0,0-2.25.94L12.44,5.32a1.64,1.64,0,0,0-2.27,0L5.32,10.17a1.56,1.56,0,0,0-.48,1.13,1.6,1.6,0,0,0,.48,1.14l1.27,1.27A15.09,15.09,0,0,0,5.65,16H3.86a1.62,1.62,0,0,0-1.61,1.61v6.86A1.62,1.62,0,0,0,3.86,26H5.65a15.09,15.09,0,0,0,.94,2.25L5.32,29.56a1.6,1.6,0,0,0-.48,1.14,1.56,1.56,0,0,0,.48,1.13l4.85,4.85a1.56,1.56,0,0,0,1.13.48,1.6,1.6,0,0,0,1.14-.48l1.27-1.27a15.09,15.09,0,0,0,2.25.94v1.79a1.61,1.61,0,0,0,1.61,1.61h5.35a1.24,1.24,0,0,0,.37.86l3.09,3.09a1.34,1.34,0,0,0,1.84,0l.66-.66a10.82,10.82,0,0,0,1.13.47v.93a1.3,1.3,0,0,0,1.3,1.3h4.38a1.3,1.3,0,0,0,1.3-1.3v-.93a10.82,10.82,0,0,0,1.13-.47l.65.65a1.34,1.34,0,0,0,1.84,0l3.09-3.09a1.29,1.29,0,0,0,0-1.84l-.66-.66A10.82,10.82,0,0,0,43.52,37h.93a1.3,1.3,0,0,0,1.3-1.3V31.31A1.3,1.3,0,0,0,44.45,30ZM23.82,38.25H17.57a.11.11,0,0,1-.11-.11V35.79a.45.45,0,0,0,0-.2s0-.06,0-.08a.91.91,0,0,0-.11-.16l-.06-.08-.14-.09L17,35.12l0,0a14.42,14.42,0,0,1-3-1.25h0l-.15-.05-.13,0a.38.38,0,0,0-.15,0,.61.61,0,0,0-.13,0l-.13.06-.12.08,0,0-1.64,1.64a.11.11,0,0,1-.15,0L6.38,30.77a.11.11,0,0,1,0-.15L8,29l0,0a.57.57,0,0,0,.08-.13.67.67,0,0,0,.06-.12.58.58,0,0,0,0-.14.33.33,0,0,0,0-.14.51.51,0,0,0,0-.13.88.88,0,0,0-.05-.15s0,0,0,0a14.42,14.42,0,0,1-1.25-3l0,0a.91.91,0,0,0-.07-.14,1,1,0,0,0-.08-.11.81.81,0,0,0-.1-.09.57.57,0,0,0-.13-.08l-.12,0-.16,0H3.86a.11.11,0,0,1-.11-.11V17.57a.11.11,0,0,1,.11-.11H6.18a.86.86,0,0,0,.27-.05l.08,0a.71.71,0,0,0,.14-.1.23.23,0,0,0,.07-.07.42.42,0,0,0,.09-.14.41.41,0,0,0,0-.09s0,0,0,0a14.42,14.42,0,0,1,1.25-3s0,0,0,0a.88.88,0,0,0,.05-.15.51.51,0,0,0,0-.13.33.33,0,0,0,0-.14.58.58,0,0,0,0-.14.67.67,0,0,0-.06-.12.57.57,0,0,0-.08-.13l0,0L6.38,11.38a.11.11,0,0,1,0-.15l4.85-4.85a.11.11,0,0,1,.15,0L13,8a.41.41,0,0,0,.11.07s0,.05.09.06a.66.66,0,0,0,.33.09h0a.76.76,0,0,0,.33-.08h0a14.42,14.42,0,0,1,3-1.25l0,0,.14-.07.11-.08a.48.48,0,0,0,.09-.11.44.44,0,0,0,.08-.11.65.65,0,0,0,0-.13.83.83,0,0,0,0-.15V3.86a.11.11,0,0,1,.11-.11h6.86a.11.11,0,0,1,.11.11V6.23a.83.83,0,0,0,0,.15.65.65,0,0,0,0,.13.44.44,0,0,0,.08.11.48.48,0,0,0,.09.11l.11.08.14.07,0,0a14.42,14.42,0,0,1,3,1.25h0a.76.76,0,0,0,.33.08h0a.66.66,0,0,0,.33-.09s.06,0,.09-.06A.41.41,0,0,0,29,8l1.64-1.64a.11.11,0,0,1,.15,0l4.85,4.85a.11.11,0,0,1,0,.15L34,13l0,0a.57.57,0,0,0-.08.13.67.67,0,0,0-.06.12.58.58,0,0,0,0,.14.33.33,0,0,0,0,.14.51.51,0,0,0,0,.13.88.88,0,0,0,.05.15s0,0,0,0a14.42,14.42,0,0,1,1.25,3s0,0,0,0,0,.05,0,.08a.91.91,0,0,0,.11.16s0,0,0,.05a.57.57,0,0,0,.18.12l0,0a.67.67,0,0,0,.28.06h2.32a.11.11,0,0,1,.11.11v6.25l-.13.13A10.82,10.82,0,0,0,37,23.48v-.93a1.3,1.3,0,0,0-1.3-1.3H31.31a1.29,1.29,0,0,0-1,.56,7.34,7.34,0,0,0,.05-.81A9.32,9.32,0,1,0,21,30.32a7.34,7.34,0,0,0,.81-.05,1.29,1.29,0,0,0-.56,1v4.38a1.3,1.3,0,0,0,1.3,1.3h.93A10.82,10.82,0,0,0,24,38.12Zm20.43-2.76H43a.74.74,0,0,0-.72.55,9.36,9.36,0,0,1-.78,1.86.74.74,0,0,0,.13.89l.9.9L39.7,42.5l-.91-.9a.74.74,0,0,0-.89-.13,9.36,9.36,0,0,1-1.86.78.74.74,0,0,0-.55.72v1.28h-4V43a.74.74,0,0,0-.55-.72,9.36,9.36,0,0,1-1.86-.78.74.74,0,0,0-.89.13l-.9.9L24.5,39.7l.9-.91a.74.74,0,0,0,.13-.89A9.36,9.36,0,0,1,24.75,36a.74.74,0,0,0-.72-.55H22.75v-4H24a.74.74,0,0,0,.72-.55,9.36,9.36,0,0,1,.78-1.86.74.74,0,0,0-.13-.89l-.07-.07h0l-.83-.83,2.8-2.81.84.83.07.07a.74.74,0,0,0,.89.13A9.36,9.36,0,0,1,31,24.75a.74.74,0,0,0,.55-.72V22.75h4V24a.74.74,0,0,0,.55.72,9.36,9.36,0,0,1,1.86.78.74.74,0,0,0,.89-.13l.74-.74h0l.16-.16,2.81,2.8-.9.91a.74.74,0,0,0-.13.89A9.36,9.36,0,0,1,42.25,31a.74.74,0,0,0,.72.55h1.28Z"/><circle cx="33.5" cy="33.5" r="5.25"/></g><text x="0" y="63" fill="#000000" font-size="5px" font-weight="bold" font-family="'Helvetica Neue', Helvetica, Arial-Unicode, Arial, Sans-serif">Created by Alwin Aulia</text><text x="0" y="68" fill="#000000" font-size="5px" font-weight="bold" font-family="'Helvetica Neue', Helvetica, Arial-Unicode, Arial, Sans-serif">from the Noun Project</text></svg>