<svg width="26" height="26" viewBox="0 0 26 26" fill="none" xmlns="http://www.w3.org/2000/svg">
<g clip-path="url(#clip0_205_4924)">
<path d="M18.1329 4.13825C18.1329 4.55479 17.9674 4.95428 17.6729 5.24882C17.3784 5.54336 16.9789 5.70884 16.5623 5.70884C16.1458 5.70884 15.7463 5.54336 15.4518 5.24882C15.1572 4.95428 14.9917 4.55479 14.9917 4.13825C14.9917 3.7217 15.1572 3.32222 15.4518 3.02767C15.7463 2.73313 16.1458 2.56766 16.5623 2.56766C16.9789 2.56766 17.3784 2.73313 17.6729 3.02767C17.9674 3.32222 18.1329 3.7217 18.1329 4.13825ZM19.7035 4.13825C19.7035 3.30516 19.3726 2.50618 18.7835 1.9171C18.1944 1.32801 17.3954 0.99707 16.5623 0.99707C15.7292 0.99707 14.9303 1.32801 14.3412 1.9171C13.7521 2.50618 13.4212 3.30516 13.4212 4.13825C13.4212 4.97134 13.7521 5.77031 14.3412 6.35939C14.9303 6.94848 15.7292 7.27942 16.5623 7.27942C17.3954 7.27942 18.1944 6.94848 18.7835 6.35939C19.3726 5.77031 19.7035 4.97134 19.7035 4.13825ZM8.70939 19.8441C8.70939 20.6772 8.37844 21.4762 7.78936 22.0653C7.20027 22.6544 6.4013 22.9853 5.56821 22.9853C4.73512 22.9853 3.93615 22.6544 3.34706 22.0653C2.75798 21.4762 2.42703 20.6772 2.42703 19.8441C2.42703 19.011 2.75798 18.2121 3.34706 17.623C3.93615 17.0339 4.73512 16.703 5.56821 16.703C6.4013 16.703 7.20027 17.0339 7.78936 17.623C8.37844 18.2121 8.70939 19.011 8.70939 19.8441ZM10.28 19.8441C10.28 18.5945 9.78356 17.396 8.89993 16.5124C8.0163 15.6288 6.81785 15.1324 5.56821 15.1324C4.31857 15.1324 3.12012 15.6288 2.23649 16.5124C1.35286 17.396 0.856445 18.5945 0.856445 19.8441C0.856445 21.0938 1.35286 22.2922 2.23649 23.1758C3.12012 24.0595 4.31857 24.5559 5.56821 24.5559C6.81785 24.5559 8.0163 24.0595 8.89993 23.1758C9.78356 22.2922 10.28 21.0938 10.28 19.8441ZM24.4153 19.8441C24.4153 20.6772 24.0843 21.4762 23.4952 22.0653C22.9062 22.6544 22.1072 22.9853 21.2741 22.9853C20.441 22.9853 19.642 22.6544 19.0529 22.0653C18.4639 21.4762 18.1329 20.6772 18.1329 19.8441C18.1329 19.011 18.4639 18.2121 19.0529 17.623C19.642 17.0339 20.441 16.703 21.2741 16.703C22.1072 16.703 22.9062 17.0339 23.4952 17.623C24.0843 18.2121 24.4153 19.011 24.4153 19.8441ZM25.9859 19.8441C25.9859 18.5945 25.4894 17.396 24.6058 16.5124C23.7222 15.6288 22.5237 15.1324 21.2741 15.1324C20.0245 15.1324 18.826 15.6288 17.9424 16.5124C17.0587 17.396 16.5623 18.5945 16.5623 19.8441C16.5623 21.0938 17.0587 22.2922 17.9424 23.1758C18.826 24.0595 20.0245 24.5559 21.2741 24.5559C22.5237 24.5559 23.7222 24.0595 24.6058 23.1758C25.4894 22.2922 25.9859 21.0938 25.9859 19.8441ZM13.4212 20.6294C13.2129 20.6294 13.0131 20.5467 12.8659 20.3994C12.7186 20.2521 12.6359 20.0524 12.6359 19.8441C12.6381 18.5486 12.2835 17.2776 11.6107 16.1704C10.938 15.0633 9.97332 14.1629 8.82247 13.5681C8.71218 13.5099 8.61732 13.4263 8.54573 13.3243C8.47415 13.2222 8.4279 13.1045 8.41081 12.981C8.39373 12.8575 8.40629 12.7317 8.44747 12.614C8.48864 12.4964 8.55725 12.3902 8.64761 12.3043L12.8809 8.28146C12.9698 8.197 13.0773 8.13455 13.1948 8.09912C13.3122 8.06369 13.4363 8.05626 13.5571 8.07743C13.678 8.0986 13.7921 8.14779 13.8905 8.22104C13.9889 8.29429 14.0688 8.38957 14.1237 8.49925C14.1886 8.62071 14.2735 8.76311 14.3991 8.94843C14.6054 9.25103 14.8483 9.55259 15.1289 9.83634C15.9666 10.6834 16.9696 11.2059 18.1329 11.2059C18.3412 11.2059 18.5409 11.2886 18.6882 11.4359C18.8355 11.5832 18.9182 11.7829 18.9182 11.9912C18.9182 12.1995 18.8355 12.3992 18.6882 12.5465C18.5409 12.6937 18.3412 12.7765 18.1329 12.7765C17.3062 12.7604 16.4923 12.5686 15.7454 12.2136C14.9986 11.8587 14.3358 11.3488 13.8012 10.718C13.7321 10.6364 13.647 10.5699 13.5512 10.5224C13.4554 10.475 13.351 10.4475 13.2442 10.4418C13.1374 10.4362 13.0307 10.4523 12.9304 10.4894C12.8301 10.5264 12.7384 10.5835 12.661 10.6572L11.1407 12.1022C11.0607 12.1781 10.9975 12.27 10.9554 12.3719C10.9133 12.4738 10.8931 12.5834 10.8962 12.6937C10.8992 12.8039 10.9255 12.9123 10.9732 13.0117C11.0209 13.1111 11.089 13.1994 11.1731 13.2707C12.1257 14.0802 12.8905 15.0875 13.4143 16.2225C13.9382 17.3575 14.2085 18.593 14.2064 19.8431C14.2066 19.9463 14.1864 20.0485 14.147 20.1439C14.1076 20.2393 14.0497 20.326 13.9768 20.399C13.9039 20.4721 13.8173 20.53 13.7219 20.5695C13.6266 20.6091 13.5244 20.6294 13.4212 20.6294ZM13.4212 22.2C14.046 22.2 14.6452 21.9518 15.087 21.51C15.5288 21.0682 15.777 20.4689 15.777 19.8441C15.7793 18.3663 15.4597 16.9056 14.8403 15.5638C14.221 14.2219 13.3169 13.031 12.1909 12.0739L12.2223 13.2403L13.7436 11.7954L12.6034 11.7336C13.2842 12.5363 14.1283 13.1846 15.0795 13.6353C16.0306 14.086 17.0669 14.3286 18.1193 14.3471C18.4287 14.348 18.7352 14.2879 19.0214 14.1703C19.3075 14.0528 19.5678 13.88 19.7872 13.6619C20.0066 13.4437 20.1808 13.1845 20.3001 12.899C20.4193 12.6135 20.4811 12.3074 20.482 11.998C20.4829 11.6886 20.4228 11.3821 20.3053 11.0959C20.1877 10.8097 20.0149 10.5495 19.7968 10.3301C19.5787 10.1107 19.3194 9.93646 19.034 9.81724C18.7485 9.69802 18.4423 9.6362 18.1329 9.63531C17.446 9.63531 16.8136 9.30548 16.2451 8.73169C15.9631 8.44467 15.7186 8.12311 15.5174 7.77468C15.3502 7.44887 15.1095 7.1665 14.8141 6.94998C14.5188 6.73347 14.1771 6.58878 13.8161 6.52739C13.4551 6.46601 13.0848 6.48962 12.7345 6.59635C12.3842 6.70308 12.0636 6.89 11.7982 7.14226L7.56495 11.1651C7.29316 11.4234 7.08696 11.7429 6.9635 12.097C6.84003 12.451 6.80287 12.8294 6.85509 13.2008C6.90732 13.5721 7.04743 13.9256 7.26377 14.2319C7.48012 14.5381 7.76644 14.7884 8.09895 14.9617C8.99424 15.4242 9.74475 16.1244 10.2681 16.9856C10.7913 17.8467 11.0672 18.8354 11.0653 19.8431C11.0651 20.1525 11.126 20.459 11.2443 20.745C11.3626 21.0309 11.5361 21.2907 11.7549 21.5096C11.9737 21.7285 12.2335 21.9021 12.5194 22.0206C12.8052 22.139 13.1117 22.2 13.4212 22.2Z" fill="#1A1A1A"/>
</g>
<defs>
<clipPath id="clip0_205_4924">
<rect width="25.1294" height="25.1294" fill="white" transform="translate(0.856445 0.211914)"/>
</clipPath>
</defs>
</svg>
