<svg width="19" height="21" viewBox="0 0 19 21" fill="none" xmlns="http://www.w3.org/2000/svg">
<path d="M10.72 1.95V2.7C13.5715 3.27929 15.72 5.80156 15.72 8.825V9.55937C15.72 11.3992 16.3957 13.1687 17.6145 14.5437L17.9036 14.868C18.2317 15.2391 18.3137 15.7625 18.1106 16.2117C17.9075 16.6609 17.4622 16.95 16.97 16.95H1.96996C1.47777 16.95 1.03133 16.6609 0.829688 16.2117C0.628047 15.7625 0.7087 15.2391 1.03574 14.868L1.32543 14.5437C2.54574 13.1687 3.21996 11.3992 3.21996 9.55937V8.825C3.21996 5.80156 5.33324 3.27929 8.21996 2.7V1.95C8.21996 1.25976 8.77856 0.699997 9.46996 0.699997C10.1614 0.699997 10.72 1.25976 10.72 1.95ZM9.46996 20.7C8.8059 20.7 8.16918 20.4383 7.70043 19.9695C7.23168 19.5008 6.96996 18.8289 6.96996 18.2H11.97C11.97 18.8289 11.7082 19.5008 11.2395 19.9695C10.7707 20.4383 10.0989 20.7 9.46996 20.7Z" fill="#707070"/>
</svg>
