<svg width="26" height="26" viewBox="0 0 26 26" fill="none" xmlns="http://www.w3.org/2000/svg">
<g clip-path="url(#clip0_205_4919)">
<path d="M0.860071 23.4955L1.75007 24.6651C2.41391 25.4609 3.5552 25.5614 4.32165 24.9206C4.40332 24.8515 4.47871 24.7761 4.54781 24.6934L5.53624 23.5081C5.55872 23.4815 5.58675 23.4602 5.61835 23.4456C5.64996 23.431 5.68437 23.4234 5.71919 23.4235C5.75401 23.4236 5.78838 23.4314 5.8199 23.4461C5.85142 23.4609 5.87933 23.4824 5.90166 23.5091L6.89008 24.6923C7.05982 24.8954 7.27206 25.0588 7.51182 25.171C7.75158 25.2831 8.01302 25.3413 8.27771 25.3414C8.54241 25.3415 8.8039 25.2835 9.04374 25.1715C9.28359 25.0596 9.49594 24.8963 9.66584 24.6934L10.6543 23.5081C10.6767 23.4815 10.7048 23.4602 10.7364 23.4456C10.768 23.431 10.8024 23.4234 10.8372 23.4235C10.872 23.4236 10.9064 23.4314 10.9379 23.4461C10.9694 23.4609 10.9974 23.4824 11.0197 23.5091L12.0144 24.6944C12.1842 24.8973 12.3964 25.0604 12.6362 25.1724C12.8759 25.2843 13.1372 25.3423 13.4017 25.3423C13.6663 25.3423 13.9276 25.2843 14.1673 25.1724C14.407 25.0604 14.6193 24.8973 14.7891 24.6944L15.7754 23.5081C15.7979 23.4815 15.8259 23.4602 15.8575 23.4456C15.8891 23.431 15.9236 23.4234 15.9584 23.4235C15.9932 23.4236 16.0276 23.4314 16.0591 23.4461C16.0906 23.4609 16.1185 23.4824 16.1408 23.5091L17.1272 24.6923C17.2969 24.8954 17.5092 25.0588 17.7489 25.171C17.9887 25.2831 18.2501 25.3413 18.5148 25.3414C18.7795 25.3415 19.041 25.2835 19.2808 25.1715C19.5207 25.0596 19.733 24.8963 19.9029 24.6934L20.8914 23.5081C20.9138 23.4815 20.9419 23.4602 20.9735 23.4456C21.0051 23.431 21.0395 23.4234 21.0743 23.4235C21.1091 23.4236 21.1435 23.4314 21.175 23.4461C21.2065 23.4609 21.2344 23.4824 21.2568 23.5091L22.241 24.6923C22.4107 24.8956 22.623 25.0592 22.8629 25.1714C23.1028 25.2837 23.3643 25.3419 23.6292 25.342C23.894 25.3421 24.1556 25.2841 24.3956 25.172C24.6355 25.0599 24.8479 24.8965 25.0178 24.6934L25.6303 23.9604C25.7002 23.8819 25.7536 23.7901 25.7873 23.6905C25.821 23.591 25.8344 23.4856 25.8267 23.3808C25.8189 23.276 25.7902 23.1737 25.7423 23.0802C25.6943 22.9867 25.628 22.9037 25.5474 22.8363C25.4667 22.7688 25.3734 22.7182 25.2729 22.6875C25.1723 22.6568 25.0666 22.6466 24.9621 22.6575C24.8575 22.6684 24.7562 22.7002 24.6642 22.751C24.5721 22.8018 24.4912 22.8705 24.4262 22.9532L23.8137 23.6861C23.7913 23.7129 23.7633 23.7345 23.7316 23.7493C23.6999 23.7641 23.6654 23.7718 23.6305 23.7718C23.5955 23.7718 23.561 23.7641 23.5293 23.7493C23.4977 23.7345 23.4696 23.7129 23.4472 23.6861L22.463 22.5029C22.2933 22.2996 22.081 22.1361 21.8411 22.0238C21.6012 21.9116 21.3397 21.8533 21.0748 21.8532C20.81 21.8531 20.5484 21.9112 20.3084 22.0233C20.0685 22.1353 19.8561 22.2987 19.6862 22.5019L18.6978 23.6871C18.6753 23.7137 18.6473 23.7351 18.6157 23.7497C18.584 23.7643 18.5496 23.7718 18.5148 23.7717C18.48 23.7716 18.4456 23.7639 18.4141 23.7491C18.3826 23.7343 18.3547 23.7128 18.3323 23.6861L17.346 22.5029C17.1763 22.2998 16.964 22.1364 16.7243 22.0243C16.4845 21.9121 16.2231 21.854 15.9584 21.8539C15.6937 21.8538 15.4322 21.9117 15.1924 22.0237C14.9525 22.1357 14.7402 22.2989 14.5703 22.5019L13.5829 23.6871C13.5604 23.7136 13.5324 23.7347 13.5009 23.7492C13.4694 23.7637 13.4351 23.7712 13.4005 23.7711C13.3658 23.771 13.3315 23.7633 13.3001 23.7487C13.2687 23.734 13.2408 23.7126 13.2185 23.6861L12.2238 22.5008C12.0542 22.2977 11.842 22.1342 11.6023 22.022C11.3626 21.9099 11.1011 21.8518 10.8364 21.8518C10.5718 21.8518 10.3103 21.9099 10.0706 22.022C9.83088 22.1342 9.61871 22.2977 9.4491 22.5008L8.46067 23.6871C8.43819 23.7137 8.41016 23.7351 8.37855 23.7497C8.34695 23.7643 8.31253 23.7718 8.27772 23.7717C8.2429 23.7716 8.20853 23.7639 8.177 23.7491C8.14548 23.7343 8.11758 23.7128 8.09525 23.6861L7.10682 22.5029C6.93701 22.3001 6.72477 22.1369 6.48506 22.025C6.24536 21.913 5.98403 21.855 5.71947 21.855C5.45492 21.855 5.19358 21.913 4.95388 22.025C4.71418 22.1369 4.50194 22.3001 4.33212 22.5029L3.34265 23.6861C3.32016 23.7127 3.29214 23.734 3.26053 23.7486C3.22893 23.7632 3.19451 23.7708 3.15969 23.7707C3.12488 23.7706 3.0905 23.7628 3.05898 23.7481C3.02746 23.7333 2.99956 23.7118 2.97722 23.6851L2.11026 22.5438C2.0477 22.4617 1.96958 22.3927 1.88036 22.3408C1.79115 22.2889 1.69258 22.2551 1.5903 22.2413C1.48801 22.2275 1.38401 22.234 1.28423 22.2603C1.18445 22.2867 1.09084 22.3325 1.00875 22.3951C0.926664 22.4576 0.857702 22.5358 0.805804 22.625C0.753906 22.7142 0.720089 22.8128 0.706282 22.915C0.692476 23.0173 0.698951 23.1213 0.725338 23.2211C0.751725 23.3209 0.797507 23.4145 0.860071 23.4966V23.4955ZM12.7285 20.6894C14.0056 19.6724 15.5799 19.0999 17.212 19.0591H25.045C25.2533 19.0591 25.4531 18.9764 25.6003 18.8291C25.7476 18.6819 25.8303 18.4821 25.8303 18.2739C25.8303 18.0656 25.7476 17.8658 25.6003 17.7186C25.4531 17.5713 25.2533 17.4886 25.045 17.4886H17.1921C15.212 17.5352 13.3014 18.228 11.7516 19.4612C11.5886 19.5909 11.4838 19.78 11.4602 19.987C11.4366 20.194 11.4962 20.4018 11.6259 20.5648C11.7556 20.7278 11.9447 20.8326 12.1517 20.8562C12.3587 20.8798 12.5665 20.8202 12.7295 20.6905L12.7285 20.6894ZM24.0336 8.5561C24.3067 8.46069 24.5529 8.30123 24.7517 8.09107C24.9505 7.8809 25.0961 7.62616 25.1761 7.34818C25.2562 7.07019 25.2685 6.77707 25.212 6.49335C25.1555 6.20964 25.0318 5.9436 24.8513 5.71752C21.0442 0.958639 14.1022 0.189051 9.34439 3.99616C8.06064 5.02369 7.02283 6.3252 6.30687 7.80548C5.59092 9.28576 5.21493 10.9074 5.20641 12.5517C5.2052 12.8411 5.27337 13.1266 5.4052 13.3843C5.53702 13.6419 5.72867 13.8643 5.9641 14.0326C6.19952 14.201 6.47186 14.3105 6.7583 14.352C7.04475 14.3934 7.33696 14.3656 7.61046 14.2709L24.0325 8.55505L24.0336 8.5561ZM23.5163 7.07346L7.09426 12.7873C7.058 12.7998 7.01925 12.8035 6.98127 12.798C6.94328 12.7925 6.90718 12.7779 6.87599 12.7556C6.8448 12.7332 6.81944 12.7037 6.80203 12.6695C6.78462 12.6353 6.77568 12.5974 6.77595 12.559C6.78634 10.6031 7.40268 8.69842 8.54015 7.10721C9.67762 5.51599 11.2803 4.31642 13.1276 3.67359C14.9749 3.03076 16.9761 2.97628 18.8556 3.51763C20.7352 4.05898 22.4008 5.16956 23.6231 6.69652C23.6473 6.72628 23.6639 6.76142 23.6716 6.79896C23.6793 6.83651 23.6779 6.87536 23.6674 6.91223C23.6569 6.94909 23.6377 6.9829 23.6115 7.01078C23.5852 7.03866 23.5525 7.06085 23.5163 7.07346ZM13.6122 2.67582L12.94 0.739804C12.909 0.638981 12.8579 0.545445 12.7899 0.464779C12.722 0.384113 12.6384 0.317971 12.5443 0.270301C12.4502 0.22263 12.3475 0.194409 12.2422 0.187321C12.137 0.180234 12.0314 0.194425 11.9317 0.229049C11.8321 0.263672 11.7404 0.318017 11.6622 0.388841C11.584 0.459664 11.5209 0.545514 11.4767 0.641265C11.4324 0.737017 11.4079 0.840707 11.4045 0.946146C11.4012 1.05158 11.4192 1.15661 11.4574 1.25496L12.1306 3.18992C12.1616 3.29074 12.2127 3.38428 12.2807 3.46495C12.3486 3.54561 12.4322 3.61175 12.5263 3.65943C12.6204 3.7071 12.7231 3.73532 12.8284 3.7424C12.9336 3.74949 13.0392 3.7353 13.1389 3.70068C13.2385 3.66605 13.3302 3.61171 13.4084 3.54088C13.4866 3.47006 13.5497 3.38421 13.5939 3.28846C13.6382 3.19271 13.6627 3.08902 13.6661 2.98358C13.6694 2.87814 13.6514 2.77311 13.6132 2.67477L13.6122 2.67582ZM14.8226 10.9298L17.4685 18.5335C17.5009 18.6328 17.5528 18.7247 17.6212 18.8036C17.6895 18.8826 17.773 18.9472 17.8666 18.9935C17.9602 19.0399 18.0621 19.0671 18.1663 19.0736C18.2706 19.0801 18.3751 19.0657 18.4737 19.0313C18.5723 18.9969 18.6631 18.9431 18.7407 18.8732C18.8183 18.8033 18.8812 18.7186 18.9256 18.6241C18.9701 18.5295 18.9953 18.4271 18.9996 18.3227C19.004 18.2184 18.9875 18.1142 18.9512 18.0163L16.3052 10.4146C16.2742 10.3138 16.2232 10.2203 16.1552 10.1396C16.0872 10.0589 16.0037 9.9928 15.9096 9.94513C15.8155 9.89746 15.7127 9.86923 15.6075 9.86215C15.5022 9.85506 15.3966 9.86925 15.297 9.90387C15.1973 9.9385 15.1057 9.99284 15.0275 10.0637C14.9493 10.1345 14.8862 10.2203 14.8419 10.3161C14.7976 10.4118 14.7731 10.5155 14.7698 10.621C14.7665 10.7264 14.7844 10.8314 14.8226 10.9298Z" fill="#006CE4"/>
</g>
<defs>
<clipPath id="clip0_205_4919">
<rect width="25.1294" height="25.1294" fill="white" transform="translate(0.699951 0.211914)"/>
</clipPath>
</defs>
</svg>
