<svg xmlns="http://www.w3.org/2000/svg" data-name="Layer 1" viewBox="0 0 100 125" x="0px" y="0px"><title>a</title><path d="M50,60.175A14.129,14.129,0,1,0,35.872,46.047,14.144,14.144,0,0,0,50,60.175Zm0-24.366A10.238,10.238,0,1,1,39.762,46.047,10.25,10.25,0,0,1,50,35.809ZM94.387,50A44.387,44.387,0,1,0,21.843,84.288a1.939,1.939,0,0,0,.457.368,44.291,44.291,0,0,0,55.4,0,1.933,1.933,0,0,0,.456-.368A44.316,44.316,0,0,0,94.387,50ZM9.5,50A40.5,40.5,0,1,1,77.3,79.886a31.454,31.454,0,0,0-54.595,0A40.4,40.4,0,0,1,9.5,50ZM25.749,82.413a27.567,27.567,0,0,1,48.5,0,40.421,40.421,0,0,1-48.5,0Z"/><text x="0" y="115" fill="#000000" font-size="5px" font-weight="bold" font-family="'Helvetica Neue', Helvetica, Arial-Unicode, Arial, Sans-serif">Created by Orange Cat</text><text x="0" y="120" fill="#000000" font-size="5px" font-weight="bold" font-family="'Helvetica Neue', Helvetica, Arial-Unicode, Arial, Sans-serif">from the Noun Project</text></svg>