<svg xmlns="http://www.w3.org/2000/svg" viewBox="0 0 24 30" x="0px" y="0px"><title>question, help, question mark, info, information, question mark circle, ui, button, interface, round</title><g data-name="Layer 2"><path d="M12,1.25A10.75,10.75,0,1,0,22.75,12,10.762,10.762,0,0,0,12,1.25Zm0,20A9.25,9.25,0,1,1,21.25,12,9.26032,9.26032,0,0,1,12,21.25Z"/><path d="M12.85352,6.35986a3.26552,3.26552,0,0,0-2.84229.56983A3.22885,3.22885,0,0,0,8.75,9.5a.75.75,0,0,0,1.5,0,1.75175,1.75175,0,0,1,3.4375-.47852,1.76745,1.76745,0,0,1-1.19043,2.15723A1.79956,1.79956,0,0,0,11.25,12.919V14a.75.75,0,0,0,1.5,0V12.919a.31214.31214,0,0,1,.17188-.30176,3.25163,3.25163,0,0,0-.06836-6.25733Z"/><circle cx="12" cy="17" r="1"/></g><text x="0" y="39" fill="#000000" font-size="5px" font-weight="bold" font-family="'Helvetica Neue', Helvetica, Arial-Unicode, Arial, Sans-serif">Created by Nursila</text><text x="0" y="44" fill="#000000" font-size="5px" font-weight="bold" font-family="'Helvetica Neue', Helvetica, Arial-Unicode, Arial, Sans-serif">from the Noun Project</text></svg>