<svg xmlns="http://www.w3.org/2000/svg" xmlns:xlink="http://www.w3.org/1999/xlink" version="1.1" x="0px" y="0px" viewBox="0 0 64 80" enable-background="new 0 0 64 64" xml:space="preserve"><g><g><path d="M52.534,31.177h-0.051v-2.059c1.646-1.722,2.82-4.56,2.82-8.635c0-0.13-0.01-0.707-0.01-0.707    c0.006-3.437,0.014-7.715-7.333-7.849c-7.305,0.134-7.297,4.412-7.292,7.849c0,0-0.013,0.578-0.013,0.707    c0,3.204,0.75,5.918,2.17,7.85c0.203,0.276,0.424,0.528,0.652,0.768v2.077h-0.054c-4.578,0-8.303,3.726-8.303,8.306V61h-6.243    V28.553c0-4.58-3.727-8.307-8.307-8.307l-0.042-2.065c1.644-1.722,2.815-4.558,2.815-8.628c0-0.132-0.002-1.224,0.009-1.625    c0.057-1.943,0.11-3.777-1.199-5.145C21.032,1.61,19.085,1.043,15.999,1C8.693,1.131,8.701,5.409,8.707,8.846    c0,0-0.013,0.574-0.013,0.707c0,3.204,0.751,5.918,2.171,7.85c0.203,0.276,0.424,0.528,0.652,0.768v2.076h-0.051    c-4.58,0-8.307,3.727-8.307,8.307V62c0,0.552,0.448,1,1,1H59.84c0.552,0,1-0.448,1-1V39.482    C60.84,34.903,57.114,31.177,52.534,31.177z M52.534,33.177c3.478,0,6.307,2.829,6.307,6.306v3.641h-9.861V36.23l2.93-3.054    H52.534z M47.96,13.927c4.943,0.09,5.309,2.055,5.332,5.089c-1.668-0.264-3.577-1.142-4.492-2.458    c-0.187-0.269-0.493-0.429-0.821-0.429h0c-0.328,0-0.635,0.161-0.821,0.43c-0.913,1.316-2.819,2.193-4.487,2.457    C42.692,15.982,43.055,14.018,47.96,13.927z M42.672,21.025c1.794-0.229,3.885-1.038,5.308-2.379    c1.424,1.341,3.514,2.149,5.307,2.379c-0.165,5.578-2.824,8.135-5.308,8.135S42.836,26.603,42.672,21.025z M47.979,31.159    c0.838,0,1.689-0.195,2.503-0.581v1.196l-2.503,2.609l-2.501-2.608v-1.208C46.271,30.947,47.116,31.159,47.979,31.159z     M43.424,33.177h0.627l2.927,3.053v6.894h-9.857v-3.641C37.122,36.005,39.949,33.177,43.424,33.177z M26.878,28.553v3.64h-9.861    v-6.893l2.931-3.053h0.624C24.049,22.246,26.878,25.075,26.878,28.553z M16.003,3c2.449,0.034,3.989,0.416,4.708,1.167    c0.73,0.762,0.692,2.06,0.644,3.703c-0.003,0.115-0.007,0.23-0.01,0.347c-1.88-0.008-1.947-0.682-1.979-1.006    c-0.028-0.284-0.175-0.542-0.405-0.709c-0.23-0.167-0.521-0.231-0.799-0.17c-1.07,0.229-2.064,0.683-3.026,1.121    c-1.54,0.703-3.018,1.327-4.43,0.995C10.708,5.208,10.902,3.092,16.003,3z M10.721,10.476c0.279,0.042,0.56,0.07,0.843,0.07h0    c1.609,0,3.029-0.648,4.402-1.274C16.563,9,17.137,8.737,17.706,8.538c0.445,0.848,1.445,1.648,3.621,1.672    c-0.198,5.497-2.839,8.019-5.307,8.019C13.592,18.229,10.992,15.792,10.721,10.476z M16.02,20.229c0.837,0,1.689-0.195,2.502-0.58    v1.195l-2.504,2.608l-2.5-2.608v-1.208C14.31,20.017,15.156,20.229,16.02,20.229z M11.466,22.246h0.625l2.926,3.053v6.894H5.16    v-3.64C5.16,25.075,7.989,22.246,11.466,22.246z M5.16,34.192h21.719V61H5.16V34.192z M58.84,61H37.122V45.123H58.84V61z"/><path d="M13.803,41.679c0.552,0,1-0.463,1-1.016s-0.448-1-1-1s-1,0.448-1,1v0.031C12.803,41.247,13.251,41.679,13.803,41.679z"/><path d="M18.681,40.263c-0.425-0.352-1.056-0.293-1.408,0.133l-4.049,4.894c-0.352,0.426-0.292,1.056,0.133,1.408    c0.187,0.154,0.413,0.229,0.637,0.229c0.288,0,0.573-0.124,0.771-0.362l4.049-4.894C19.166,41.245,19.106,40.615,18.681,40.263z"/><path d="M18.235,45.293c-0.552,0-1,0.448-1,1v0.03c0,0.552,0.448,0.985,1,0.985s1-0.463,1-1.015S18.787,45.293,18.235,45.293z"/><path d="M45.765,51.261c0.552,0,1-0.463,1-1.016s-0.448-1-1-1s-1,0.448-1,1v0.031C44.765,50.829,45.213,51.261,45.765,51.261z"/><path d="M45.316,56.279c0.187,0.155,0.413,0.23,0.637,0.23c0.288,0,0.573-0.124,0.771-0.362l4.052-4.894    c0.353-0.425,0.293-1.056-0.132-1.408c-0.426-0.353-1.056-0.293-1.408,0.132l-4.052,4.894    C44.831,55.296,44.891,55.927,45.316,56.279z"/><path d="M50.197,54.875c-0.552,0-1,0.448-1,1v0.03c0,0.552,0.448,0.985,1,0.985s1-0.463,1-1.015S50.749,54.875,50.197,54.875z"/></g></g><text x="0" y="79" fill="#000000" font-size="5px" font-weight="bold" font-family="'Helvetica Neue', Helvetica, Arial-Unicode, Arial, Sans-serif">Created by Romaldon</text><text x="0" y="84" fill="#000000" font-size="5px" font-weight="bold" font-family="'Helvetica Neue', Helvetica, Arial-Unicode, Arial, Sans-serif">from the Noun Project</text></svg>