<svg xmlns="http://www.w3.org/2000/svg" viewBox="0 0 24 30" x="0px" y="0px"><title>ui 82</title><g data-name="Layer 2"><path d="M21,17.46H19.21a9.75,9.75,0,1,0-7.71,3.79,1.25,1.25,0,0,0,0-2.5,7.26,7.26,0,1,1,5.75-2.84V14a1.25,1.25,0,0,0-2.5,0v4.71s0,.06,0,.09a.64.64,0,0,0,.05.24.85.85,0,0,0,.09.24.32.32,0,0,0,0,.09,1.39,1.39,0,0,0,.15.19s0,0,0,0a1.08,1.08,0,0,0,.34.23l.1.05A1.77,1.77,0,0,0,16,20h5a1.25,1.25,0,0,0,0-2.5Z"/></g><text x="0" y="39" fill="#000000" font-size="5px" font-weight="bold" font-family="'Helvetica Neue', Helvetica, Arial-Unicode, Arial, Sans-serif">Created by Nursila</text><text x="0" y="44" fill="#000000" font-size="5px" font-weight="bold" font-family="'Helvetica Neue', Helvetica, Arial-Unicode, Arial, Sans-serif">from the Noun Project</text></svg>