<svg width="18" height="19" viewBox="0 0 18 19" fill="none" xmlns="http://www.w3.org/2000/svg">
<path d="M9.24 0C7.56 0 6.00667 0.426666 4.58 1.28C3.18 2.09333 2.07333 3.2 1.26 4.6C0.42 6.02667 0 7.58 0 9.26C0 10.94 0.42 12.4933 1.26 13.92C2.07333 15.32 3.18 16.4267 4.58 17.24C6.00667 18.08 7.56 18.5 9.24 18.5C10.92 18.5 12.4733 18.08 13.9 17.24C15.3 16.4267 16.4067 15.32 17.22 13.92C18.06 12.4933 18.48 10.94 18.48 9.26C18.48 7.58 18.06 6.02667 17.22 4.6C16.4067 3.2 15.3 2.09333 13.9 1.28C12.4733 0.440001 10.92 0.0133343 9.24 0ZM4.14 15.08L5.22 12.46C5.64667 11.4467 5.88333 10.3833 5.93 9.27C5.97667 8.15667 5.82 7.07333 5.46 6.02C5.39333 5.82 5.27 5.67333 5.09 5.58C4.91 5.48667 4.72 5.47333 4.52 5.54C4.32 5.60667 4.17333 5.73333 4.08 5.92C3.98667 6.10667 3.97333 6.3 4.04 6.5C4.33333 7.38 4.46333 8.28333 4.43 9.21C4.39667 10.1367 4.2 11.0267 3.84 11.88L3.02 13.86C2.35333 12.9667 1.90667 11.9867 1.68 10.92C1.45333 9.85333 1.44667 8.78 1.66 7.7C1.87333 6.62 2.30333 5.63 2.95 4.73C3.59667 3.83 4.39667 3.10667 5.35 2.56C6.30333 2.01333 7.32333 1.68 8.41 1.56C9.49667 1.44 10.5667 1.55 11.62 1.89C12.6733 2.23 13.6067 2.76667 14.42 3.5C15.2333 4.23333 15.8667 5.1 16.32 6.1C16.7733 7.1 16.9933 8.15333 16.98 9.26C16.9933 10.0867 16.8667 10.8933 16.6 11.68C16.3333 12.4667 15.9533 13.1933 15.46 13.86L14.64 11.88C14.28 11.0267 14.0833 10.1367 14.05 9.21C14.0167 8.28333 14.1467 7.38 14.44 6.5C14.5067 6.3 14.4933 6.11 14.4 5.93C14.3067 5.75 14.1633 5.62667 13.97 5.56C13.7767 5.49333 13.5867 5.50667 13.4 5.6C13.2133 5.69333 13.0867 5.83333 13.02 6.02C12.6733 7.07333 12.52 8.15667 12.56 9.27C12.6 10.3833 12.8333 11.4467 13.26 12.46L14.36 15.08C13.4 15.92 12.3 16.4933 11.06 16.8C9.84667 17.0933 8.64 17.0933 7.44 16.8C6.2 16.4933 5.1 15.92 4.14 15.08Z" fill="#1C1C1C"/>
</svg>
