<svg width="21" height="17" viewBox="0 0 21 17" fill="none" xmlns="http://www.w3.org/2000/svg">
<path d="M18.6 0.380005C19.4125 0.380005 20.1 1.0675 20.1 1.88V11.88C20.1 12.7238 19.4125 13.38 18.6 13.38H11.1V14.38H16.6C16.85 14.38 17.1 14.63 17.1 14.88V15.88C17.1 16.1613 16.85 16.38 16.6 16.38H3.6C3.31875 16.38 3.1 16.1613 3.1 15.88V14.88C3.1 14.63 3.31875 14.38 3.6 14.38H9.1V13.38H1.6C0.75625 13.38 0.1 12.7238 0.1 11.88V1.88C0.1 1.0675 0.75625 0.380005 1.6 0.380005H18.6ZM18.1 11.38V2.38H2.1V11.38H18.1Z" fill="#212529"/>
</svg>
