<svg xmlns="http://www.w3.org/2000/svg" xmlns:xlink="http://www.w3.org/1999/xlink" version="1.0" x="0px" y="0px" viewBox="0 0 100 125" enable-background="new 0 0 100 100" xml:space="preserve"><g><path fill="#000000" d="M50.219,52.838c5.101,0,9.251-4.149,9.251-9.25c0-5.102-4.15-9.252-9.251-9.252   c-5.101,0-9.251,4.15-9.251,9.252C40.968,48.688,45.118,52.838,50.219,52.838z"/><path fill="#000000" d="M58.473,53.664H54.24c-0.134,0-0.266,0.026-0.389,0.078c-2.301,0.971-4.964,0.971-7.267,0   c-0.123-0.052-0.255-0.078-0.388-0.078h-4.232c-2.883,0-5.228,2.348-5.228,5.232v10.296c0,0.487,0.352,0.903,0.832,0.985   c3.817,0.651,8.191,0.996,12.65,0.996c4.459,0,8.834-0.345,12.649-0.996c0.48-0.082,0.832-0.498,0.832-0.985V58.896   C63.7,56.012,61.355,53.664,58.473,53.664z"/><path fill="#000000" d="M73.521,47.329c5.102,0,9.252-4.149,9.252-9.25c0-5.102-4.15-9.252-9.252-9.252   c-5.101,0-9.25,4.15-9.25,9.252C64.271,43.179,68.421,47.329,73.521,47.329z"/><path fill="#000000" d="M81.779,48.156h-4.234c-0.133,0-0.265,0.026-0.387,0.078c-2.309,0.969-4.97,0.967-7.274,0   c-0.123-0.051-0.254-0.078-0.387-0.078H65.27c-2.318,0-4.382,1.556-5.02,3.784c-0.086,0.302-0.025,0.626,0.163,0.877   c0.189,0.25,0.485,0.397,0.799,0.397h0.7c1.887,0,3.421,1.537,3.421,3.427v7.711c0,0.518,0.395,0.949,0.91,0.996   c2.32,0.21,4.771,0.316,7.281,0.316c4.452,0,8.824-0.345,12.644-0.996C86.648,64.587,87,64.17,87,63.683V53.39   C87,50.504,84.658,48.156,81.779,48.156z"/><path fill="#000000" d="M26.478,47.329c5.101,0,9.251-4.149,9.251-9.25c0-5.102-4.15-9.252-9.251-9.252s-9.251,4.15-9.251,9.252   C17.226,43.179,21.376,47.329,26.478,47.329z"/><path fill="#000000" d="M38.788,53.214c0.003,0,0.007,0,0.01,0c0.542,0.017,1.01-0.443,1.01-1c0-0.173-0.044-0.335-0.121-0.477   c-0.701-2.119-2.709-3.582-4.957-3.582h-4.228c-0.133,0-0.264,0.026-0.387,0.078c-2.301,0.966-4.96,0.97-7.275,0   c-0.122-0.051-0.253-0.078-0.386-0.078h-4.233c-2.879,0-5.221,2.348-5.221,5.234v10.293c0,0.487,0.352,0.904,0.832,0.985   c3.819,0.651,8.191,0.996,12.643,0.996c2.512,0,4.962-0.106,7.282-0.316c0.515-0.047,0.91-0.479,0.91-0.996v-7.711   c0-1.89,1.535-3.427,3.421-3.427H38.788z"/></g><text x="0" y="115" fill="#000000" font-size="5px" font-weight="bold" font-family="'Helvetica Neue', Helvetica, Arial-Unicode, Arial, Sans-serif">Created by DTDesign</text><text x="0" y="120" fill="#000000" font-size="5px" font-weight="bold" font-family="'Helvetica Neue', Helvetica, Arial-Unicode, Arial, Sans-serif">from the Noun Project</text></svg>